<svg width="20" height="20" viewBox="0 0 20 20" fill="none" xmlns="http://www.w3.org/2000/svg">
<path fill-rule="evenodd" clip-rule="evenodd" d="M13.1396 13.2353C15.6543 10.7021 15.6543 6.59515 13.1396 4.06201C10.6247 1.52888 6.54744 1.52888 4.03263 4.06201C1.51782 6.59515 1.51782 10.7021 4.03263 13.2353C6.54744 15.7684 10.6247 15.7684 13.1396 13.2353ZM14.6574 14.7642C18.0105 11.3867 18.0105 5.91064 14.6574 2.53314C11.3043 -0.844378 5.86789 -0.844378 2.51481 2.53314C-0.838269 5.91064 -0.838269 11.3867 2.51481 14.7642C5.86789 18.1417 11.3043 18.1417 14.6574 14.7642Z" fill="black"/>
<path fill-rule="evenodd" clip-rule="evenodd" d="M13.8986 13.9998C14.3177 13.5776 14.9973 13.5776 15.4164 13.9998L19.2109 17.8219C19.6301 18.2441 19.6301 18.9286 19.2109 19.3508C18.7918 19.7729 18.1122 19.7729 17.6931 19.3508L13.8986 15.5286C13.4795 15.1065 13.4795 14.4219 13.8986 13.9998Z" fill="black"/>
</svg>
